<?xml version="1.0" standalone="no"?><!DOCTYPE svg PUBLIC "-//W3C//DTD SVG 1.1//EN" "http://www.w3.org/Graphics/SVG/1.1/DTD/svg11.dtd"><svg t="1735013333221" class="icon" viewBox="0 0 1024 1024" version="1.1" xmlns="http://www.w3.org/2000/svg" p-id="33739" xmlns:xlink="http://www.w3.org/1999/xlink" width="200" height="200"><path d="M923.136 267.605333v701.952H193.024v-909.653333h521.216z" fill="#7CCDFF" p-id="33740"></path><path d="M912.896 253.952l2.56 671.914667c0 15.530667-12.458667 27.989333-27.989333 27.989333H237.909333c-15.530667 0-27.989333-12.458667-27.989333-27.989333V96.938667c0-15.530667 12.458667-27.989333 27.989333-27.989334l493.397334-1.024-38.912-39.936H239.274667c-36.352 0-65.706667 29.354667-65.706667 65.706667v835.584c0 36.352 29.354667 65.706667 65.706667 65.706667h646.826666c36.352 0 65.706667-29.354667 65.706667-65.706667V293.888l-38.912-39.936z" fill="#4191FB" p-id="33741"></path><path d="M692.394667 222.72c0 39.424 31.914667 71.338667 71.338666 71.338667h188.245334L692.394667 27.989333v194.730667z" fill="#C7E2FF" p-id="33742"></path><path d="M557.568 482.304H158.72c-50.346667 0-91.136-40.789333-91.136-91.136v-60.245333c0-50.346667 40.789333-91.136 91.136-91.136h398.848c50.346667 0 91.136 40.789333 91.136 91.136v60.245333c0 50.346667-40.789333 91.136-91.136 91.136z" fill="#4191FB" p-id="33743"></path><path d="M131.242667 287.573333h96.768V320.853333H167.424v24.746667H223.573333v31.744H167.424v30.72h62.293333v35.328H131.242667v-155.818667zM241.152 287.573333h39.765333l20.650667 47.957334 20.138667-47.957334h39.424l-36.352 75.434667 39.765333 80.384h-40.618667l-23.04-50.005333-23.04 50.005333h-40.277333l40.277333-81.237333-36.693333-74.581334zM375.978667 287.573333H472.746667V320.853333h-60.586667v24.746667h56.149333v31.744h-56.149333v30.72H474.453333v35.328h-98.474666v-155.818667zM493.738667 287.573333h36.010666v117.418667h56.32v38.4h-92.330666v-155.818667z" fill="#FFFFFF" p-id="33744"></path><path d="M462.848 621.568h460.288v-40.96H464.213333c-36.352 0-65.706667 29.354667-65.706666 65.706667v323.242666h524.629333v-3.754666H436.053333l-0.341333-83.456h487.424v-43.008H435.541333l-0.341333-83.456h487.936v-43.008H435.2l-0.170667-63.488c-0.170667-15.189333 12.458667-27.818667 27.818667-27.818667z" fill="#4191FB" p-id="33745"></path></svg>