<?xml version="1.0" standalone="no"?><!DOCTYPE svg PUBLIC "-//W3C//DTD SVG 1.1//EN" "http://www.w3.org/Graphics/SVG/1.1/DTD/svg11.dtd"><svg t="1735011233618" class="icon" viewBox="0 0 1024 1024" version="1.1" xmlns="http://www.w3.org/2000/svg" p-id="2631" xmlns:xlink="http://www.w3.org/1999/xlink" width="200" height="200"><path d="M220.5 959C135.724 959 67 890.276 67 805.5S135.724 652 220.5 652H374v153.5c0 84.776-68.724 153.5-153.5 153.5z m0-247c-51.639 0-93.5 41.861-93.5 93.5s41.861 93.5 93.5 93.5 93.5-41.861 93.5-93.5V712h-93.5zM806.5 899C721.724 899 653 830.276 653 745.5S721.724 592 806.5 592H960v153.5c0 84.776-68.724 153.5-153.5 153.5z m0-247c-51.639 0-93.5 41.861-93.5 93.5s41.861 93.5 93.5 93.5 93.5-41.861 93.5-93.5V652h-93.5z" fill="#2F54EB" p-id="2632"></path><path d="M327.96 431.402l-11.92-58.804 630-127.701 11.92 58.804z" fill="#85A5FF" p-id="2633"></path><path d="M374 241.176V746h-60V232.241c0-23.19 16.257-43.205 38.954-47.959l568.78-119.14c17.298-3.623 34.258 7.462 37.88 24.76a32 32 0 0 1 0.68 6.56v633.15h-60V130.935L374 241.175z" fill="#2F54EB" p-id="2634"></path></svg>