<?xml version="1.0" standalone="no"?><!DOCTYPE svg PUBLIC "-//W3C//DTD SVG 1.1//EN" "http://www.w3.org/Graphics/SVG/1.1/DTD/svg11.dtd"><svg t="1735011784934" class="icon" viewBox="0 0 1024 1024" version="1.1" xmlns="http://www.w3.org/2000/svg" p-id="4714" xmlns:xlink="http://www.w3.org/1999/xlink" width="200" height="200"><path d="M0 512c0 282.763636 229.236364 512 512 512s512-229.236364 512-512S794.763636 0 512 0 0 229.236364 0 512z" fill="#F9F9F9" p-id="4715"></path><path d="M768 308.596364c-0.093091-14.149818-5.632-28.276364-15.848727-38.027637-9.728-9.309091-22.574545-14.522182-35.933091-14.568727H310.411636c-1.512727 0-3.025455-0.023273-4.538181 0.046545-19.898182 0.930909-37.794909 13.032727-45.614546 31.790546-4.002909 9.658182-4.258909 19.176727-4.258909 29.300364v398.359272c0.116364 14.498909 6.004364 29.393455 16.965818 38.981818 9.867636 8.610909 21.806545 13.474909 34.932364 13.521455h409.553454c18.571636-0.535273 36.864-11.310545 44.986182-28.672 3.677091-7.773091 5.585455-16.290909 5.562182-24.901818V308.596364z m-472.669091-12.590546c0.558545-0.581818 1.186909-1.093818 1.768727-1.652363 1.163636-0.791273 2.373818-1.489455 3.630546-2.117819 1.442909-0.512 2.909091-0.930909 4.398545-1.233454 4.072727-0.302545 8.238545-0.093091 12.288-0.093091h398.731637c0.907636 0 1.815273 0.023273 2.722909 0.093091 1.489455 0.302545 2.955636 0.721455 4.421818 1.233454 1.163636 0.581818 2.327273 1.256727 3.421091 1.978182l0.628363 0.442182c0.628364 0.581818 1.303273 1.28 1.349819 1.349818 0.581818 0.581818 1.093818 1.233455 1.629091 1.838546 0.768 1.163636 1.466182 2.397091 2.094545 3.677091 0.488727 1.466182 0.907636 2.955636 1.210182 4.468363 0.279273 4.072727 0.093091 8.238545 0.093091 12.288v262.562909l-17.175273-18.525091-71.633455-77.335272-16.407272-17.687273c-6.283636-6.842182-17.873455-6.562909-24.250182 0l-13.963636 14.382545-33.512728 34.56-40.541091 41.774546-35.048727 36.142545c-2.141091 2.210909-4.328727 4.398545-6.493091 6.586182l-18.618182-15.453091-51.176727-42.519273-11.752727-9.774545c-3.421091-2.885818-7.400727-5.352727-12.101818-5.12a18.664727 18.664727 0 0 0-12.125091 5.12l-35.258182 31.767273-43.380364 39.098182V308.759273c0-0.907636 0.046545-1.838545 0.093091-2.746182 0.325818-1.512727 0.721455-3.025455 1.210182-4.491636a34.909091 34.909091 0 0 1 1.954909-3.49091l0.442182-0.628363 1.326545-1.373091z m335.592727 437.131637H307.898182c-0.907636 0-1.815273-0.046545-2.722909-0.116364a36.072727 36.072727 0 0 1-4.421818-1.233455c-1.163636-0.581818-2.327273-1.256727-3.421091-1.978181l-0.628364-0.442182c-0.628364-0.581818-1.303273-1.28-1.349818-1.349818-0.581818-0.581818-1.093818-1.233455-1.629091-1.815273a35.770182 35.770182 0 0 1-2.094546-3.700364 36.421818 36.421818 0 0 1-1.210181-4.468363c-0.279273-4.072727-0.093091-8.238545-0.093091-12.288v-55.389091l34.048-30.696728 55.901091-50.432 1.256727-1.117091 19.479273 16.197819 51.153454 42.496 11.752727 9.844363c3.444364 2.885818 7.424 5.306182 12.125091 5.12a17.594182 17.594182 0 0 0 12.125091-5.12l13.963637-14.405818 33.512727-34.56 40.564364-41.797818 35.048727-36.142546 4.887273-4.95709 33.396363 36.072727 71.633455 77.288727 12.520727 13.544727v83.595637c0 0.930909-0.023273 1.838545-0.093091 2.746182-0.302545 1.512727-0.698182 3.025455-1.210182 4.491636a34.909091 34.909091 0 0 1-2.373818 4.119273c-0.581818 0.651636-1.28 1.326545-1.349818 1.396363-0.558545 0.581818-1.210182 1.093818-1.792 1.652364-1.163636 0.791273-2.373818 1.489455-3.607273 2.117818-1.466182 0.512-2.932364 0.930909-4.421818 1.256727a42.053818 42.053818 0 0 1-2.327273 0.093091H630.923636v-0.023272z" fill="#5693FF" p-id="4716"></path><path d="M382.72 446.789818c10.728727 5.12 22.807273 6.609455 34.443636 4.282182 23.784727-4.538182 40.797091-27.182545 41.658182-51.2a17.454545 17.454545 0 0 0 0.046546-1.326545v-1.117091a54.644364 54.644364 0 0 0-35.793455-49.757091c-19.549091-7.330909-43.706182-0.651636-56.971636 15.639272a57.018182 57.018182 0 0 0-12.846546 32.023273c-0.907636 10.449455 1.954909 21.643636 7.214546 30.603637 5.12 8.750545 13.032727 16.546909 22.248727 20.852363z m11.869091-63.301818l0.186182-0.162909a34.443636 34.443636 0 0 1 3.956363-2.280727c1.536-0.558545 3.118545-1.000727 4.724364-1.326546 1.675636-0.116364 3.351273-0.116364 5.026909 0 1.605818 0.325818 3.188364 0.768 4.724364 1.326546 1.256727 0.605091 2.466909 1.303273 3.630545 2.094545l0.395637 0.256c0.628364 0.581818 1.28 1.140364 1.88509 1.745455 0.605091 0.628364 1.117091 1.210182 1.652364 1.815272l0.139636 0.209455c0.837818 1.28 1.629091 2.606545 2.280728 4.002909 0.535273 1.582545 0.977455 3.211636 1.303272 4.840727a41.029818 41.029818 0 0 1 0 5.026909c-0.325818 1.652364-0.768 3.258182-1.303272 4.887273a37.236364 37.236364 0 0 1-2.327273 4.049455l-1.698909 1.931636c-0.581818 0.628364-1.186909 1.117091-1.792 1.675636l-0.186182 0.139637a34.443636 34.443636 0 0 1-3.956364 2.304 37.12 37.12 0 0 1-4.724363 1.326545 38.120727 38.120727 0 0 1-5.026909 0 37.399273 37.399273 0 0 1-4.724364-1.326545 33.978182 33.978182 0 0 1-3.630545-2.094546l-0.395637-0.279272c-0.628364-0.581818-1.28-1.117091-1.861818-1.745455-0.628364-0.605091-1.140364-1.186909-1.698909-1.815273l-0.139636-0.186182a37.166545 37.166545 0 0 1-2.280728-4.002909 39.866182 39.866182 0 0 1-1.28-4.817454 42.216727 42.216727 0 0 1 0-5.12c0.325818-1.629091 0.768-3.234909 1.303273-4.817455 0.605091-1.256727 1.28-2.490182 2.048-3.677091l0.256-0.395636 1.722182-1.931636c0.581818-0.605091 1.233455-1.117091 1.792-1.675637z" fill="#5693FF" p-id="4717"></path></svg>