<?xml version="1.0" standalone="no"?><!DOCTYPE svg PUBLIC "-//W3C//DTD SVG 1.1//EN" "http://www.w3.org/Graphics/SVG/1.1/DTD/svg11.dtd"><svg t="1735012620172" class="icon" viewBox="0 0 1024 1024" version="1.1" xmlns="http://www.w3.org/2000/svg" p-id="27818" xmlns:xlink="http://www.w3.org/1999/xlink" width="200" height="200"><path d="M643.64544 0a92.16 92.16 0 0 1 65.09568 26.9312l187.61728 187.21792a92.16 92.16 0 0 1 27.05408 65.2288v120.6272A80.10752 80.10752 0 0 1 1003.52 480.09216v319.7952a80.10752 80.10752 0 0 1-77.55776 80.06656l-2.54976 0.03072v48.00512c0 53.02272-43.02848 96-96.12288 96H186.4704c-53.0944 0-96.12288-42.97728-96.12288-96v-48.00512A80.10752 80.10752 0 0 1 10.24 799.8976v-319.7952a80.10752 80.10752 0 0 1 77.55776-80.06656l2.54976-0.04096V96C90.34752 42.97728 133.376 0 186.4704 0h457.17504zM827.2896 879.99488H186.4704v17.28512a30.72 30.72 0 0 0 30.72 30.72h579.3792a30.72 30.72 0 0 0 30.72-30.72v-17.28512zM438.00576 559.49312h-42.86464l-19.3536 88.65792c-0.8192 3.29728-1.41312 6.7584-1.792 10.40384-0.37888 3.6352-0.5632 7.40352-0.5632 11.30496 0 17.2544 5.39648 30.5152 16.19968 39.77216 10.8032 9.25696 26.28608 13.89568 46.45888 13.89568 21.9136 0 38.93248-5.14048 51.07712-15.42144 12.15488-10.27072 20.55168-26.65472 25.20064-49.152l20.48-99.46112h-41.17504l-19.3536 87.53152c-3.82976 17.17248-8.25344 29.06112-13.27104 35.65568-5.02784 6.6048-11.81696 9.90208-20.36736 9.90208-6.36928 0-11.73504-2.05824-16.08704-6.18496a20.11136 20.11136 0 0 1-6.52288-15.18592 102.33856 102.33856 0 0 1 2.59072-22.60992l19.3536-89.10848z m179.43552-3.4816c-20.10112 0-36.33152 4.8128-48.71168 14.45888-12.36992 9.6256-18.55488 22.17984-18.55488 37.632 0 8.76544 2.21184 16.27136 6.63552 22.49728 4.42368 6.22592 11.17184 11.24352 20.24448 15.07328 2.32448 0.9728 5.59104 2.28352 9.78944 3.9424 16.72192 6.66624 25.088 13.86496 25.088 21.59616 0 6.144-3.15392 11.02848-9.45152 14.62272-6.2976 3.60448-14.91968 5.39648-25.87648 5.39648-6.00064 0-12.12416-0.8192-18.39104-2.46784a103.39328 103.39328 0 0 1-19.4048-7.424l-9.22624 32.96256c8.25344 2.9184 16.81408 5.12 25.7024 6.57408a171.3152 171.3152 0 0 0 27.8528 2.2016c22.86592 0 40.98048-5.20192 54.33344-15.58528 13.35296-10.38336 20.02944-24.32 20.02944-41.78944 0-9.5232-2.4064-17.36704-7.20896-23.52128-4.79232-6.144-13.824-12.4416-27.10528-18.8928a196.47488 196.47488 0 0 0-10.8032-4.73088c-11.39712-4.72064-17.1008-9.97376-17.1008-15.74912 0-5.3248 2.52928-9.39008 7.59808-12.20608 5.05856-2.80576 12.34944-4.21888 21.87264-4.21888 6.30784 0 12.45184 0.65536 18.45248 1.96608 6.00064 1.32096 11.9296 3.2768 17.77664 5.90848l9.90208-31.16032c-6.37952-2.32448-14.08-4.096-23.12192-5.28384a231.79264 231.79264 0 0 0-30.3104-1.80224z m-314.54208 3.4816h-60.3136L208.7424 719.36h41.85088l13.38368-63.55968h7.64928c6.08256 0 10.52672 0.90112 13.33248 2.69312 2.816 1.80224 4.74112 4.95616 5.79584 9.45152l11.25376 51.41504h41.96352l-11.81696-54.33344c-1.4336-6.98368-3.33824-12.288-5.7344-15.9232a32.18432 32.18432 0 0 0-10.1376-9.50272c14.0288-1.1264 24.87296-5.2224 32.52224-12.26752 7.64928-7.04512 11.4688-16.45568 11.4688-28.23168 0-13.12768-4.79232-23.00928-14.39744-29.6448-9.59488-6.63552-23.92064-9.96352-42.96704-9.96352z m514.00704 0H693.15584l-6.41024 30.8224h39.59808l-27.4432 129.04448h43.07968l27.4432-129.03424h40.84736l6.63552-30.8224z m-522.4448 29.25568c7.2704 0 12.76928 1.3824 16.4864 4.15744 3.70688 2.77504 5.56032 6.90176 5.56032 12.38016 0 6.59456-2.70336 11.71456-8.09984 15.36-5.39648 3.6352-13.056 5.44768-22.94784 5.44768h-15.18592l7.53664-37.34528h16.65024z m303.63648-500.4288H217.1904a30.72 30.72 0 0 0-30.72 30.72v280.95488h640.8192v-81.5616H690.28864c-50.8928-0.01024-92.14976-41.2672-92.16-92.16l-0.03072-137.95328z m96.12288 59.84256v58.91072a15.36 15.36 0 0 0 15.36 15.36h59.0848l-74.4448-74.27072z" fill="#FF6B08" p-id="27819"></path></svg>