<?xml version="1.0" standalone="no"?><!DOCTYPE svg PUBLIC "-//W3C//DTD SVG 1.1//EN" "http://www.w3.org/Graphics/SVG/1.1/DTD/svg11.dtd"><svg t="1735012607474" class="icon" viewBox="0 0 1024 1024" version="1.1" xmlns="http://www.w3.org/2000/svg" p-id="26761" xmlns:xlink="http://www.w3.org/1999/xlink" width="200" height="200"><path d="M896 0H128C57.6 0 0 57.6 0 128v768c0 70.4 57.6 128 128 128h768c70.4 0 128-57.6 128-128V128c0-70.4-57.6-128-128-128zM281.6 480c128-12.8 422.4-44.8 454.4-83.2v153.6c-32 44.8-326.4 70.4-454.4 83.2V480z m454.4 268.8c-32 51.2-332.8 76.8-454.4 83.2v-153.6c128-12.8 422.4-44.8 454.4-83.2v153.6z m0-403.2c-32 51.2-332.8 76.8-454.4 83.2V275.2c128-12.8 422.4-44.8 454.4-83.2v153.6z" fill="#5B8AF7" p-id="26762"></path></svg>