<?xml version="1.0" standalone="no"?><!DOCTYPE svg PUBLIC "-//W3C//DTD SVG 1.1//EN" "http://www.w3.org/Graphics/SVG/1.1/DTD/svg11.dtd"><svg t="1735013351813" class="icon" viewBox="0 0 1024 1024" version="1.1" xmlns="http://www.w3.org/2000/svg" p-id="34825" xmlns:xlink="http://www.w3.org/1999/xlink" width="200" height="200"><path d="M967.111 281.6v628.622c0 62.578-51.2 113.778-113.778 113.778H170.667c-62.578 0-113.778-51.2-113.778-113.778V113.778C56.889 51.2 108.089 0 170.667 0H685.51l281.6 281.6z" fill="#62C558" p-id="34826"></path><path d="M685.511 224.711V0l281.6 281.6H742.4c-31.289 0-56.889-25.6-56.889-56.889" fill="#2A8121" p-id="34827"></path><path d="M682.667 724.025L638.692 768 341.333 470.67l43.975-44.003z m-228.58-112.896l44.089 44.089L385.422 768l-44.089-44.089z m228.58-140.373L569.6 583.822l-44.089-44.089 113.067-113.066z" fill="#FFFFFF" p-id="34828"></path></svg>