<?xml version="1.0" standalone="no"?><!DOCTYPE svg PUBLIC "-//W3C//DTD SVG 1.1//EN" "http://www.w3.org/Graphics/SVG/1.1/DTD/svg11.dtd"><svg t="1735012444401" class="icon" viewBox="0 0 1024 1024" version="1.1" xmlns="http://www.w3.org/2000/svg" p-id="19808" xmlns:xlink="http://www.w3.org/1999/xlink" width="200" height="200"><path d="M512 0a512 512 0 1 1 0 1024A512 512 0 0 1 512 0z m-48.896 369.28a190.08 190.08 0 0 0-119.68 73.856 167.488 167.488 0 0 0-36.096 125.184c3.392 37.76 22.72 72.32 53.12 94.912a152.32 152.32 0 0 0 114.88 28.16A178.368 178.368 0 0 0 598.144 618.88c7.04-9.344 13.056-19.392 18.048-30.08 6.848 26.24 21.376 49.792 41.728 67.584 29.696 24.96 67.52 38.4 106.368 37.504 11.136-1.344 22.592-1.6 33.984-3.776a195.648 195.648 0 0 0 102.656-54.72 165.632 165.632 0 0 0 47.808-144.896 132.928 132.928 0 0 0-60.352-95.168 159.488 159.488 0 0 0-121.728-21.76 179.968 179.968 0 0 0-119.616 71.232c-12.864 16.64-22.784 35.456-29.248 55.552H480.128a11.456 11.456 0 0 0-10.624 6.912c-5.888 11.136-16.256 33.216-21.824 46.528-2.944 7.424 0 12.8 8.256 12.8H538.24c-4.224 6.08-7.68 11.136-11.648 15.872-17.664 21.376-45.184 32-72.576 28.16a67.2 67.2 0 0 1-57.728-66.944 91.456 91.456 0 0 1 43.648-81.344 74.432 74.432 0 0 1 77.312-6.4c7.872 3.84 14.72 9.408 20.224 16.256 5.312 6.4 5.824 6.08 12.16 4.224l71.808-18.56c5.12-1.344 6.912-3.52 4.288-7.488a132.928 132.928 0 0 0-49.472-60.096 147.008 147.008 0 0 0-113.28-20.992z m369.088 91.392a70.4 70.4 0 0 1 30.976 47.552c0.896 4.672 1.28 9.408 1.28 14.08a93.568 93.568 0 0 1-54.208 80.64c-21.568 11.52-47.232 12.416-69.632 2.56a70.976 70.976 0 0 1-39.36-79.68 93.824 93.824 0 0 1 75.008-74.432 70.4 70.4 0 0 1 55.936 9.28zM272.512 528.192H187.2a6.4 6.4 0 0 0-4.288 2.368l-5.824 10.88v2.432h95.68a3.456 3.456 0 0 0 2.944-2.944V530.56a2.688 2.688 0 0 0-3.2-2.368z m9.6-39.36H87.168a6.656 6.656 0 0 0-4.8 2.112l-9.28 11.52v2.048h201.728a3.712 3.712 0 0 0 4.032-2.624l3.456-10.112a2.112 2.112 0 0 0-0.32-2.944z m21.76-39.616l-151.04 0.32a5.824 5.824 0 0 0-4.736 2.112l-9.024 11.712v2.112H293.76a6.912 6.912 0 0 0 4.288-2.432l7.168-11.136c0-1.28 0-2.688-1.344-2.688z" fill="#40A9FF" p-id="19809"></path></svg>