<?xml version="1.0" standalone="no"?><!DOCTYPE svg PUBLIC "-//W3C//DTD SVG 1.1//EN" "http://www.w3.org/Graphics/SVG/1.1/DTD/svg11.dtd"><svg t="1735012554022" class="icon" viewBox="0 0 1086 1024" version="1.1" xmlns="http://www.w3.org/2000/svg" p-id="24761" xmlns:xlink="http://www.w3.org/1999/xlink" width="212.109375" height="200"><path d="M1058.691879 994.33503c-62.370909-127.751758-178.517333-96.069818-238.064485-63.922424-5.368242 3.289212-10.860606 6.578424-16.384 9.867636l-1.303273 0.806788c-123.221333 68.918303-288.643879 73.976242-454.997333-1.241212-135.416242-61.750303-249.918061-165.112242-328.486788-296.525576a712.983273 712.983273 0 0 0 122.197333 76.675879c175.848727 86.636606 352.535273 80.368485 477.339152 0C441.157818 576.108606 292.615758 388.592485 178.827636 236.916364a646.671515 646.671515 0 0 1-58.585212-85.023031c136.316121 131.258182 351.573333 296.060121 428.900849 341.674667C385.086061 311.482182 240.60897 86.884848 247.404606 94.114909c258.265212 273.718303 496.577939 428.528485 496.577939 428.528485 8.998788 5.15103 15.608242 9.309091 21.007516 13.094788 4.964848-13.374061 9.309091-27.058424 12.970666-40.89794 41.270303-158.595879-5.182061-339.905939-110.157575-489.596121 239.553939 151.210667 381.176242 438.613333 323.149575 681.735758-1.396364 5.647515-2.978909 11.139879-4.499394 16.663273 120.180364 155.554909 87.474424 322.156606 72.145455 290.722909l0.093091-0.031031z" fill="#2876FF" p-id="24762"></path></svg>